<?xml version="1.0" standalone="no"?>
<!DOCTYPE svg PUBLIC "-//W3C//DTD SVG 20010904//EN"
 "http://www.w3.org/TR/2001/REC-SVG-20010904/DTD/svg10.dtd">
<svg version="1.0" xmlns="http://www.w3.org/2000/svg"
 width="192.000000pt" height="192.000000pt" viewBox="0 0 192.000000 192.000000"
 preserveAspectRatio="xMidYMid meet">

<g transform="translate(0.000000,192.000000) scale(0.100000,-0.100000)"
fill="#000000" stroke="none">
<path d="M130 1907 c-47 -15 -103 -74 -118 -123 -17 -59 -17 -1589 0 -1648 16
-52 72 -108 124 -124 59 -17 1589 -17 1648 0 52 16 108 72 124 124 17 59 17
1589 0 1648 -16 52 -72 108 -124 124 -56 16 -1602 16 -1654 -1z m1298 -323
c65 -5 93 -11 96 -21 8 -20 -32 -113 -61 -143 l-24 -25 -219 2 -218 1 -17 -73
c-9 -40 -26 -107 -39 -148 -20 -64 -21 -77 -9 -81 8 -3 80 -6 159 -6 168 0
167 0 139 -89 -29 -93 -23 -91 -204 -84 l-157 6 -22 -89 c-36 -150 -51 -236
-58 -339 -7 -90 -10 -102 -34 -126 -19 -20 -41 -29 -81 -34 -132 -16 -142 -3
-135 175 4 111 26 247 55 348 l10 33 -84 -7 c-75 -6 -85 -5 -91 11 -4 10 0 29
8 44 19 32 108 88 164 103 l42 12 51 150 c29 83 55 159 58 169 4 14 -1 17 -26
17 -73 0 -144 -37 -277 -145 -23 -18 -25 -18 -41 -2 -21 21 -21 102 0 143 45
87 208 171 372 193 74 10 520 13 643 5z"/>
</g>
</svg>
